<svg xmlns="http://www.w3.org/2000/svg" viewBox="0 0 1786.57 438.75"><defs><style>.cls-1,.cls-2{fill:#3abeee;}.cls-2{stroke:#3abeee;stroke-width:4px;}.cls-2,.cls-3{stroke-miterlimit:10;}.cls-3,.cls-4{fill:#272361;}.cls-3{stroke:#262261;stroke-width:5px;}</style></defs><g id="Layer_2" data-name="Layer 2"><g id="Layer_1-2" data-name="Layer 1"><path class="cls-1" d="M248.05,411.05c0,15.4-10.55,24.09-29.43,24.09H190.55v-84h26.54c17.52,0,26.54,6.57,26.54,19.49,0,9.93-6.81,17.5-21.44,19.61C238.69,391.44,248.05,398.64,248.05,411.05Zm-42.87-21.6h7.15c10.2,0,16.33-6.95,16.33-19.11,0-10.68-4.43-17-15.48-17h-8Zm27.39,22.22c0-12.53-6.81-20-19.22-20h-8.17V432.9h9.7C226.28,432.9,232.57,424.83,232.57,411.67Z"/><path class="cls-2" d="M302.15,393.18c0-26.07,20.24-43.82,49.58-43.82s49.72,18.12,49.72,43.57c0,25.94-20.66,43.82-49.58,43.82C322.26,436.75,302.15,419,302.15,393.18Zm85.94,0c0-25.45-14.32-41.84-36.36-41.84-21.76,0-36.22,16.51-36.22,41.46,0,25.33,14.18,42,36.36,42C373.63,434.76,388.09,418.25,388.09,393.18Z"/><path class="cls-1" d="M496.29,406.46H469.24l-8.84,28.68h-3.58l24.32-78.46-1.69-5.58h15.13l25.52,84H505Zm-.68-2.23-12.76-42-12.93,42Z"/><path class="cls-1" d="M652.34,351.1v2.23H627v81.81H612.37V353.33H587V351.1Z"/><path class="cls-1" d="M917.52,435.14H901.87l-8.51-28.06c-3.23-9.43-8.16-13.65-15.3-13.65H873v41.71H858.32v-84h24.33c20.75,0,29.43,8.93,29.43,19.86,0,13.28-11.57,20.23-25.86,21.47,10.72,1.37,18.37,6.09,21.78,15.77ZM873,391.19h6.8c9.86,0,16.5-5.83,16.5-19.36,0-10.56-3.23-18.5-16.33-18.5h-7Z"/><path class="cls-1" d="M1042.36,435.14h-51v-84h47.8v2.23H1006v38h26.71v2.23H1006V432.9h36.4Z"/><path class="cls-1" d="M1171.8,351.1v84h-15.14l-37.76-70.76v70.76h-3.41V358.92l-4.25-7.82h15.48l41.68,77.46V351.1Z"/><path class="cls-1" d="M1309.4,351.1v2.23h-25.35v81.81h-14.63V353.33h-25.34V351.1Z"/><path class="cls-1" d="M1404.14,406.46h-27.05l-8.84,28.68h-3.58L1389,356.68l-1.7-5.58h15.14l25.51,84h-15.14Zm-.68-2.23-12.76-42-12.93,42Z"/><path class="cls-1" d="M1552.45,435.14H1502.1v-84h14.63v81.8h35.72Z"/><path class="cls-3" d="M16.07,229.29c0-15.35,17.73-20.46,34.91-20.46,28.82,0,55.13,5.92,84.22,9.42l56-131.43C157.92,157.11,123.84,195.9,84,195.9c-29.64,0-40.17-16.43-31.31-37.17L77.3,101.36c16.35-37.71,24.1-61.95,24.1-73.8,0-3,.56-16.7-16.62-16.7C65.11,10.86,8,24.06,8,44.26c0,8.08,15.24,15.62,29.37,18.85,1.38.27.55,2.7-.56,2.7C20.51,64.19,2.5,57.19,2.5,42.92c0-18.86,34.07-39.33,72.86-40.4,23.83-.54,33,13.46,33,29.89,0,17.51-7.76,45-20.22,73.8l-23,53.06c-10.53,24.51,4.71,32,21.06,32,40.44,0,105-105,116.08-130.63,1.66-4,14.41-3.5,12.46,1.08L147.12,219.33A270.94,270.94,0,0,0,220,216.91c1.66-.27,1.94,2.42,0,3-25.49,5.38-51.25,6.73-75.63,5.92l-13.58,31.52c-3.88,9.15-8,22.08-34.08,22.08C41.29,279.39,16.07,252.46,16.07,229.29ZM119.69,253.8l12.47-28.55c-35.19-1.88-64-7.81-90.87-7.81-8.31,0-20.23,1.08-20.23,11.31,0,11.85,36.57,45.8,73.42,45.8C109.16,274.55,115,265.12,119.69,253.8Z"/><path class="cls-4" d="M222.33,189.83c0-20.18,19.06-48.12,39.12-48.12,6.35,0,12.36,3.1,15.38,7a15.37,15.37,0,0,1,2.67-.39c7,0,7,6.2,5,11.64l-8,22.12c-4,10.87,0,14.36,4,14.36,13,0,41.79-12,68.53-23.67l18.72-8.15c1-.39,2.34.39,2.67,1.94s.34,2.71-.66,3.49l-19.06,8.53c-32.09,14.37-58.5,25.23-73.87,25.23-16.05,0-20.07-11.64-16.39-22.12-8.35,11.65-18.05,22.12-25.74,22.12C226.68,203.8,222.33,198.76,222.33,189.83Zm49.14-36.48s-3-5.43-8.35-5.43c-10,0-24.74,27.56-24.74,39.58,0,4.27,2,4.66,3.68,4.66C248.41,192.16,265.12,170,271.47,153.35Z"/><path class="cls-4" d="M354.07,183.24c0-18.24,15.71-41.53,37.77-41.53,6.69,0,11.7,3.49,13.37,8.54.34,1.17.34,2.32-1.67,3.88-1.33.77-2.34.77-3-.39-2.34-5-4.34-5.82-8-5.82-11.37,0-22.73,21.73-22.73,36.09,0,7,2.67,12.42,8.35,12.42,31.1,0,85.58-45,107-68.31.67-.77,2.34-.38,3.34.78,1.34,1.56,1,3.11,0,3.89-33.09,34.92-83.24,71-115.66,71C360.75,203.8,354.07,194.87,354.07,183.24Z"/><path class="cls-4" d="M459,198l25.08-69.47c24.73-69.07,48.8-86.14,56.83-86.14,5.35,0,6,4.26,6,7.76C547,65.65,525.24,94,501.83,120l-18.05,50.46c7.36-10.48,23.07-28.72,34.77-28.72,5.35,0,10,3.88,5,17.47l-9,25.22c-3.34,9.31-1.34,11.64,5,11.64,16.38,0,68.53-33,88.59-45.79,1-.78,2.34,0,3,1.55.67,1.16.67,3.1-.33,3.88-38.12,23.67-76.89,48.12-99.62,48.12-9.7,0-16.05-7-12-17.85l9.69-26.77c1.34-3.5-1.67-4.28-5.68-.78a124.45,124.45,0,0,0-28.75,38c-2.67,5.43-6.68,7.37-11.7,7.37C459.71,203.8,457.37,202.25,459,198ZM541.28,50.9c0-.77,0-2.72-2-2.72-4,0-13.71,9.71-32.43,57.83C524.9,84.67,541.28,61.76,541.28,50.9Z"/><path class="cls-4" d="M611.17,198.76c0-11.65-10-33-24.41-46.58l-5.34-3.87c-1-.78-2.34-1.94-2.34-2.72,0-1.56,3.67-5,5-3.88l5,4.27a66.52,66.52,0,0,0,12.7,8.15,109.29,109.29,0,0,0,33.76-28.72c7-19,14.71-37.64,23.07-53.94,5.35-10.48,7.69-14,10.69-14s4,4.65.67,14.36c-24.4,67.52-28.75,81.1-33.09,92.75,15,1.16,30.09-2,53.82-10.48a1.51,1.51,0,0,1,2,1.55c0,1.17-.34,2.33-1.34,2.72-17,7.76-38.78,13.58-56.5,12-4.68,13.2-9.36,26-10.69,29.11-1,2.71-3.68,4.26-8.7,4.26C612.17,203.8,611.17,201.48,611.17,198.76Zm9.69-31a129.75,129.75,0,0,1-19.05-7c6,8.54,10.7,17.85,13,26Zm9.36-27.94a100.33,100.33,0,0,1-21.73,17.46,92.28,92.28,0,0,0,14,4.66Z"/><path class="cls-3" d="M764.3,167.32c0-14.52,15-17.9,30-17.9,23.72,0,46.46,5.32,72.84,9.19L925.72,18.28c1.45-3.15,12.34-2.66,10.64,1.45L878,160.07a333.82,333.82,0,0,0,43.32,2.9H933.7l39.93-95.33c1.45-3.64,12.59-3.15,10.89,1l-39.44,94.11c22.26-.72,44.28-2.9,59.53-7.74,1.93-.72,2.9,3.39-1.21,4.6-18.4,5.32-38.72,7.5-60.5,8.47l-18.64,44.52c-1.21,3.14-12.82,3.14-10.89-1.21l17.91-42.83h-15c-15.49,0-29-.48-41.14-1.45l-12.34,29c-4.6,10.89-8.72,20.08-30,20.08C786.57,216.2,764.3,190.79,764.3,167.32ZM852.88,193,864,166.36c-38-3.64-61.47-9.69-81.8-9.69-5.57,0-13.55,2.18-13.55,10.17,0,12.58,31.46,45,64.13,45C845.13,211.84,850.45,199,852.88,193Z"/><path class="cls-4" d="M997.08,178.3c0-20.19,19.06-48.12,39.11-48.12,6.36,0,12.37,3.1,15.38,7a15.55,15.55,0,0,1,2.68-.39c7,0,7,6.21,5,11.65l-8,22.12c-4,10.87,0,14.35,4,14.35,13.37,0,51.48-24.06,70.54-36.09l16.37-10.08c1-.78,2.35,0,3,1.55.67,1.16.67,3.1-.33,3.88l-16.38,10.09c-32.09,19.78-61.85,38-76.89,38-16,0-20.06-11.63-16.38-22.11-8.35,11.64-18.05,22.11-25.74,22.11C1001.43,192.26,997.08,187.22,997.08,178.3Zm49.14-36.49s-3-5.42-8.36-5.42c-10,0-24.73,27.55-24.73,39.58,0,4.27,2,4.66,3.67,4.66C1023.16,180.63,1039.87,158.5,1046.22,141.81Z"/><path class="cls-4" d="M1132.83,186.45l14.37-40c.67-1.95-1-3.11-3-1.95-1.34.78-2.67.78-3.67-1.16-.67-1.56-.34-3.49,1-4.27l11.36-7a12.51,12.51,0,0,1,6.69-1.94c4,0,7.35,2.71,4.68,10.09l-5,14c6.68-9.71,19-24.06,30.08-24.06,9.36,0,7.36,10.47,5,17.46l-2.35,6.6c6.69-9.71,19.06-24.06,30.09-24.06,9.36,0,7.36,10.47,5,17.46l-9,25.23c-2.34,6.59-3.34,11.63,5,11.63,16.38,0,69.19-33.37,88.58-45.78,1-.78,2.34,0,3,1.55.67,1.16.67,3.1-.33,3.88-38.11,23.67-76.89,48.11-99.62,48.11-9.7,0-16-7-12-17.85l9.7-26.77c1.33-3.88-2-3.88-5.69-.77-8.69,7.37-16.71,19.39-25.73,38-2.68,5.43-6.69,7.37-11.7,7.37-3,0-5.36-1.55-3.68-5.81l14-38.81c1.34-3.49-1.68-4.27-5.69-.77-8.69,7.37-16.71,19.39-25.73,38-2.68,5.43-6.69,7.37-11.71,7.37C1133.83,192.26,1131.15,191.1,1132.83,186.45Z"/><path class="cls-4" d="M1273.59,266.77l43.12-120.29c.67-1.95-1-3.11-3-1.95-1.34.78-2.68.78-3.68-1.16-.67-1.56-.34-3.49,1-4.27l11.37-7a12.47,12.47,0,0,1,6.68-1.94c4,0,7.36,2.71,4.68,10.09l-9.36,26c13-17.46,24.74-36.08,38.11-36.08,4,0,5.35,3.87,5.35,9.7,0,9.31-5,24.06-11.7,35.31,25.07-7,55.83-18.62,84.91-36.47,1-.78,2.34,0,3,1.55.67,1.16.67,3.1-.34,3.88-32.09,19.79-66.52,32.2-93.59,39.19-4.69,5.44-9.7,8.92-14.38,8.92-2.68,0-3.68-1.55-3.68-3.87,0-4.27,4-7.37,8.36-9.32,5-8.92,12.7-23.67,12.7-33.37,0-1.94-.33-2.33-1-2.33-4,0-25.74,29.89-36.77,48.12L1289,265.22c-2,5.44-6.69,7.38-11.7,7.38C1274.59,272.6,1271.92,271.44,1273.59,266.77Z"/><path class="cls-4" d="M1444.1,187.22c0-11.64-10-33-24.41-46.57l-5.34-3.88c-1-.77-2.34-1.94-2.34-2.72,0-1.55,3.67-5,5-3.87l5,4.26a70.81,70.81,0,0,0,13,8.15c15.38-9.31,24.74-17.85,33.1-28.32a506,506,0,0,1,23.4-54.34c5.35-10.48,7.69-14,10.69-14s4,4.65.67,14.35l-33.43,93.53a97.34,97.34,0,0,0,18.72,1.55c21.73,0,48.48-5.44,66.53-16.68,1-.78,2.34,0,3,1.55.66,1.16.66,3.1-.34,3.88-18.72,12-46.8,17.46-69.2,17.46a118.76,118.76,0,0,1-20.72-1.94c-4.68,12.81-9,25.22-10.36,28.33-1,2.71-3.68,4.26-8.7,4.26C1445.1,192.26,1444.1,189.94,1444.1,187.22Zm9.69-31a129.75,129.75,0,0,1-19-7c6,8.54,10.69,17.85,13,26C1449.45,169.37,1453.79,156.18,1453.79,156.18Zm9.7-28.33a104.16,104.16,0,0,1-22.07,17.85,109.47,109.47,0,0,0,14,5Z"/><path class="cls-4" d="M1537.72,172.87c1-18.24,16.38-42.69,38.44-42.69,9.36,0,14.38,6.59,14.38,16.69a35.57,35.57,0,0,1-1.34,9.31c4.35,2.32,9.7,3.49,16.72,3.49,13.37,0,31.08-3.88,58.83-20.95,1-.78,2.34,0,3,1.55.67,1.16.67,3.1-.33,3.88-29.09,17.85-47.47,21.72-61.51,21.72a43.44,43.44,0,0,1-18.73-3.87c-5.68,14.74-17.71,30.26-31.08,30.26C1543.4,192.26,1537.05,184.5,1537.72,172.87Zm43.46-15.14c-2.34-1.94-6-5.82-6-10.09,0-3.88,3-7.37,6.35-7.37a4.94,4.94,0,0,0-5-3.88c-11.37,0-23.4,21.72-24.07,36.09-.34,7,1,13.19,7,13.19S1576.5,172.48,1581.18,157.73Z"/><path class="cls-4" d="M1655.41,186.45l14.37-40c.67-1.95-1-3.11-3-1.95-1.33.78-2.67.78-3.67-1.16-.67-1.56-.34-3.49,1-4.27l11.36-7a12.51,12.51,0,0,1,6.69-1.94c4,0,7.35,2.71,4.68,10.09l-6.69,18.62c7.36-10.47,23.07-28.71,34.77-28.71,5.35,0,10,3.87,5,17.46l-9,25.23c-2.68,7.37-2.68,11.63,4.68,11.63,14.37,0,51.15-21.34,68.53-33.37,1-.78,2,.39,2.34,1.55a2.83,2.83,0,0,1-1,3.11s-50.15,36.47-77.89,36.47c-10,0-15.71-7.37-12-17.85l9.7-26.77c1.67-4.66-3-3.11-5.68-.77a124.22,124.22,0,0,0-28.75,38,12.27,12.27,0,0,1-11.71,7.37C1656.41,192.26,1653.73,191.1,1655.41,186.45Z"/></g></g></svg>