<svg xmlns="http://www.w3.org/2000/svg" viewBox="0 0 691.93 285.22"><defs><style>.cls-1{fill:#272361;}.cls-2{fill:#3abfef;}</style></defs><g id="Layer_2" data-name="Layer 2"><g id="Layer_1-2" data-name="Layer 1"><path class="cls-1" d="M5.3,181.49c0-6.72,6.88-9,13.54-9,11.17,0,21.38,2.6,32.66,4.13l21.7-57.56c-12.89,30.79-26.1,47.77-41.58,47.77-11.49,0-15.58-7.2-12.14-16.28L29,125.44c6.33-16.51,9.34-27.13,9.34-32.32,0-1.3.22-7.31-6.44-7.31-7.63,0-29.77,5.78-29.77,14.63,0,3.53,5.91,6.84,11.39,8.25.54.12.22,1.18-.21,1.18C7,109.16,0,106.1,0,99.87c0-8.26,13.22-17.22,28.26-17.7,9.24-.23,12.79,5.9,12.79,13.1,0,7.66-3,19.69-7.84,32.31L24.3,150.83c-4.09,10.73,1.82,14,8.16,14,15.69,0,40.72-46,45-57.2.65-1.77,5.59-1.53,4.84.47l-26.22,69A93,93,0,0,0,84.34,176c.64-.12.75,1.06,0,1.3A108.7,108.7,0,0,1,55,179.93l-5.27,13.8c-1.5,4-3.11,9.67-13.21,9.67C15.05,203.44,5.3,191.64,5.3,181.49Zm40.18,10.74,4.84-12.5c-13.65-.83-24.82-3.43-35.24-3.43-3.23,0-7.85.48-7.85,5,0,5.19,14.19,20,28.48,20,5.66,0,7.92-4.17,9.74-9.12Z"/><path class="cls-1" d="M85.3,164.21c0-8.84,7.39-21.07,15.17-21.07a7.53,7.53,0,0,1,6,3.06,4.87,4.87,0,0,1,1-.17c2.73,0,2.73,2.72,2,5.1l-3.12,9.68c-1.56,4.76,0,6.29,1.55,6.29,5.06,0,16.21-5.26,26.58-10.36l7.26-3.57c.39-.17.91.17,1,.85s.13,1.18-.26,1.52L135,159.28c-12.45,6.29-22.69,11-28.65,11-6.23,0-7.78-5.1-6.36-9.69-3.24,5.1-7,9.69-10,9.69S85.3,168.12,85.3,164.21Zm19.06-16s-1.17-2.38-3.24-2.38c-3.89,0-9.59,12.07-9.59,17.33,0,1.87.77,2,1.42,2,2.43.07,8.91-9.62,11.35-16.92Z"/><path class="cls-1" d="M136.35,161.33c0-8,6.1-18.19,14.65-18.19a5.2,5.2,0,0,1,5.19,3.74,1.51,1.51,0,0,1-.65,1.7c-.52.34-.91.34-1.17-.17-.9-2.21-1.68-2.55-3.11-2.55-4.41,0-8.81,9.51-8.81,15.81,0,3.05,1,5.43,3.24,5.43,12.06,0,33.19-19.71,41.49-29.91.25-.34.9-.17,1.29.34a1.2,1.2,0,0,1,0,1.7c-12.83,15.3-32.28,31.1-44.86,31.1C139,170.33,136.35,166.44,136.35,161.33Z"/><path class="cls-1" d="M177.07,167.78l9.72-30.42c9.59-30.25,18.93-37.73,22-37.73,2.08,0,2.34,1.87,2.34,3.4,0,6.8-8.43,19.21-17.51,30.59l-7,22.09c2.85-4.58,8.95-12.57,13.48-12.57,2.08,0,3.89,1.7,2,7.65l-3.5,11.05c-1.3,4.07-.52,5.09,1.94,5.09,6.36,0,26.58-14.44,34.36-20.05.39-.34.91,0,1.17.68a1.59,1.59,0,0,1-.13,1.7c-14.78,10.36-29.82,21.07-38.64,21.07-3.76,0-6.22-3.06-4.66-7.82l3.75-11.72c.52-1.53-.64-1.87-2.2-.34A54.27,54.27,0,0,0,183,167.1a4.6,4.6,0,0,1-4.54,3.23C177.3,170.33,176.42,169.65,177.07,167.78ZM209,103.37c0-.34,0-1.19-.78-1.19-1.55,0-5.31,4.25-12.57,25.32,7-9.34,13.35-19.37,13.35-24.13Z"/><path class="cls-1" d="M236.07,168.12c0-5.1-3.89-14.44-9.47-20.39l-2.07-1.7c-.39-.34-.91-.85-.91-1.19,0-.68,1.42-2.21,1.94-1.7l1.95,1.87a25.81,25.81,0,0,0,4.93,3.57A44.48,44.48,0,0,0,245.53,136a234.33,234.33,0,0,1,8.95-23.62c2.07-4.59,3-6.12,4.14-6.12s1.56,2,.26,6.29c-9.46,29.57-11.15,35.52-12.83,40.62,5.83.51,11.67-.85,20.87-4.59.39-.17.78.17.78.68a1.24,1.24,0,0,1-.52,1.19c-6.61,3.4-15,6-21.91,5.26-1.81,5.79-3.63,11.39-4.15,12.75-.39,1.19-1.42,1.87-3.37,1.87C236.45,170.33,236.07,169.31,236.07,168.12Zm3.76-13.59a46.76,46.76,0,0,1-7.39-3.06,42,42,0,0,1,5.05,11.38Zm3.63-12.24a40.61,40.61,0,0,1-8.43,7.65,32.83,32.83,0,0,0,5.44,2Z"/><path class="cls-1" d="M295.46,154.36c0-6.36,5.81-7.84,11.63-7.84,9.2,0,18,2.33,28.25,4l22.72-61.46c.56-1.37,4.78-1.16,4.13.64l-22.62,61.46a115.23,115.23,0,0,0,16.8,1.27h4.78l15.49-41.75c.56-1.59,4.88-1.38,4.22.43l-15.29,41.23c8.63-.32,17.17-1.27,23.08-3.39.75-.32,1.13,1.49-.47,2-7.13,2.33-15,3.28-23.46,3.7l-7.23,19.5c-.47,1.38-5,1.38-4.22-.53l7-18.75H354.4c-6,0-11.27-.22-16-.64L333.62,167c-1.79,4.76-3.38,8.79-11.64,8.79C304.09,175.76,295.46,164.63,295.46,154.36Zm34.35,11.23,4.31-11.66c-14.73-1.59-23.84-4.24-31.72-4.24-2.16,0-5.25,1-5.25,4.46,0,5.5,12.2,19.7,24.87,19.7C326.8,173.85,328.87,168.24,329.81,165.59Z"/><path class="cls-1" d="M385.74,159.16c0-8.84,7.39-21.07,15.16-21.07a7.52,7.52,0,0,1,6,3.06,5.65,5.65,0,0,1,1-.17c2.72,0,2.72,2.72,1.94,5.1l-3.11,9.68c-1.56,4.76,0,6.29,1.55,6.29,5.19,0,20-10.54,27.36-15.81l6.35-4.41c.39-.34.91,0,1.17.68a1.59,1.59,0,0,1-.13,1.7l-6.35,4.42c-12.45,8.66-24,16.65-29.82,16.65-6.23,0-7.78-5.1-6.36-9.69-3.24,5.1-7,9.69-10,9.69S385.74,163.07,385.74,159.16Zm19-16s-1.16-2.38-3.24-2.38c-3.89,0-9.59,12.07-9.59,17.33,0,1.87.78,2,1.42,2,2.52.07,9-9.62,11.46-16.92Z"/><path class="cls-1" d="M438.38,162.73l5.58-17.5c.26-.85-.39-1.36-1.17-.85-.52.34-1,.34-1.43-.51a1.61,1.61,0,0,1,.39-1.87l4.41-3.06a4.39,4.39,0,0,1,2.59-.85c1.56,0,2.85,1.19,1.82,4.42l-1.95,6.12c2.6-4.25,7.39-10.54,11.67-10.54,3.63,0,2.85,4.59,2,7.65l-.91,2.89c2.59-4.25,7.39-10.54,11.67-10.54,3.63,0,2.85,4.59,1.94,7.65l-3.5,11c-.91,2.89-1.29,5.1,2,5.1,6.35,0,26.83-14.62,34.35-20.05.39-.34.91,0,1.17.68a1.59,1.59,0,0,1-.13,1.7c-14.78,10.36-29.82,21.07-38.63,21.07-3.76,0-6.23-3.06-4.67-7.82l3.76-11.72c.52-1.7-.78-1.7-2.21-.34-3.37,3.23-6.48,8.49-10,16.65a4.6,4.6,0,0,1-4.54,3.23c-1.16,0-2.07-.68-1.42-2.55l5.44-17c.52-1.53-.65-1.87-2.2-.34-3.37,3.23-6.48,8.49-10,16.65a4.61,4.61,0,0,1-4.54,3.23C438.77,165.28,437.73,164.77,438.38,162.73Z"/><path class="cls-1" d="M493,197.91l16.73-52.68c.26-.85-.39-1.36-1.17-.85-.52.34-1,.34-1.42-.51a1.61,1.61,0,0,1,.39-1.87l4.4-3.06a4.39,4.39,0,0,1,2.59-.85c1.56,0,2.86,1.19,1.82,4.42l-3.63,11.38c5.06-7.65,9.59-15.8,14.78-15.8,1.56,0,2.08,1.7,2.08,4.25,0,4.07-2,10.54-4.54,15.46a123.86,123.86,0,0,0,32.93-16c.39-.34.91,0,1.16.68a1.59,1.59,0,0,1-.13,1.7,126.6,126.6,0,0,1-36.3,17.16c-1.81,2.38-3.76,3.91-5.57,3.91-1,0-1.43-.68-1.43-1.7,0-1.87,1.56-3.23,3.24-4.08,2-3.91,4.93-10.36,4.93-14.61,0-.85-.13-1-.39-1-1.55,0-10,13.08-14.26,21.07l-10.24,32.29a4.43,4.43,0,0,1-4.54,3.22C493.36,200.44,492.3,200,493,197.91Z"/><path class="cls-1" d="M559.1,163.07c0-5.1-3.89-14.44-9.46-20.39l-2.08-1.7c-.39-.34-.9-.85-.9-1.19,0-.68,1.42-2.21,1.94-1.7l2,1.87a27.56,27.56,0,0,0,5,3.57,47.1,47.1,0,0,0,12.84-12.41,237.15,237.15,0,0,1,9.07-23.79c2.08-4.59,3-6.12,4.15-6.12s1.56,2,.26,6.29l-13,41a33.48,33.48,0,0,0,7.27.68c8.42,0,18.8-2.39,25.8-7.31.38-.34.9,0,1.16.68a1.59,1.59,0,0,1-.13,1.7c-7.26,5.27-18.15,7.64-26.83,7.64a40.55,40.55,0,0,1-8-.85c-1.82,5.61-3.5,11.05-4,12.41-.39,1.19-1.43,1.87-3.37,1.87C559.49,165.28,559.1,164.26,559.1,163.07Zm3.76-13.63a46.8,46.8,0,0,1-7.39-3.07,42.13,42.13,0,0,1,5.06,11.39C561.18,155.25,562.86,149.44,562.86,149.44ZM566.62,137a41.32,41.32,0,0,1-8.56,7.82,39.55,39.55,0,0,0,5.45,2.2Z"/><path class="cls-1" d="M595.41,156.78c.39-8,6.36-18.69,14.91-18.69,3.63,0,5.58,2.89,5.58,7.31a17.48,17.48,0,0,1-.52,4.08,12.21,12.21,0,0,0,6.48,1.52c5.19,0,12.06-1.69,22.82-9.17.39-.34.91,0,1.17.68a1.63,1.63,0,0,1-.13,1.7c-11.28,7.81-18.41,9.51-23.86,9.51a15,15,0,0,1-7.26-1.7c-2.2,6.46-6.87,13.26-12.06,13.26C597.62,165.28,595.15,161.88,595.41,156.78Zm16.89-6.63c-.91-.84-2.34-2.55-2.34-4.41,0-1.7,1.17-3.23,2.47-3.23a2,2,0,0,0-2-1.7c-4.41,0-9.07,9.51-9.33,15.8-.13,3.06.39,5.78,2.72,5.78S610.45,156.61,612.3,150.15Z"/><path class="cls-1" d="M641.05,162.73l5.58-17.5c.26-.85-.39-1.36-1.17-.85-.52.34-1,.34-1.42-.51a1.61,1.61,0,0,1,.39-1.87l4.4-3.06a4.44,4.44,0,0,1,2.6-.85c1.55,0,2.85,1.19,1.81,4.42l-2.59,8.15c2.85-4.58,8.94-12.57,13.48-12.57,2.08,0,3.89,1.7,2,7.65l-3.5,11c-1,3.23-1,5.1,1.81,5.1,5.58,0,19.84-9.35,26.58-14.62.39-.34.78.17.91.69a1.33,1.33,0,0,1-.39,1.36s-19.45,16-30.21,16c-3.89,0-6.09-3.23-4.67-7.82l3.76-11.72c.65-2-1.16-1.36-2.2-.34A54.27,54.27,0,0,0,647,162a4.73,4.73,0,0,1-4.54,3.23C641.44,165.28,640.41,164.77,641.05,162.73Z"/><path class="cls-2" d="M252.3,12.71l61.37-.17a22.59,22.59,0,0,0,8.54-1.74c3.26-1.43,4.24-3,9.16-5.45,3.37-1.71,7-2.7,14.34-2.74,12.78-.07,25.56,0,38.88,0l-10.93,5.1c-1.63.07-4.47.17-8,.2-13.93.13-19.37-1-25.17,1.33a16.81,16.81,0,0,0-5.24,3.35h30.42c-3.78,2.3-6.85,4.08-10.85,5a28.53,28.53,0,0,1-6.71.62c-7.53-.06-37.68,0-79.1-.06,5.18,3.68,9.23,6.67,11.72,8.54,14.09,10.53,18.48,14.84,27.11,16a34.86,34.86,0,0,0,9.57-.12c-4.51,4.27-18.39,4.61-24.22.53-6.61-4.64-12-6.9-30-21.63C258.64,17.71,254.84,14.71,252.3,12.71Z"/><path class="cls-2" d="M409.1,6.54a83.31,83.31,0,0,0-16,7.71c-14.38,9-24.81,21.84-38.12,34.52a58.57,58.57,0,0,1-8.52,6.7A38.85,38.85,0,0,1,340.08,59,29.25,29.25,0,0,1,325,60.66a47.07,47.07,0,0,0,11.7-3.18c9.78-4.1,14.15-10,23.94-21.11,13.48-15.28,20.42-23,30-28.66A73.67,73.67,0,0,1,409.3,0"/><path class="cls-2" d="M114.21,260q9.69-.85,10.31,1.15c.12.45-.09.72-.61.8a1.74,1.74,0,0,1-1.35-.49h0v-.06h-.18a38.33,38.33,0,0,0-7.87.06,87.38,87.38,0,0,0-22.21,5.67l-1.28.49-.91.36a20.65,20.65,0,0,1-2.38,1,8.32,8.32,0,0,1-2.5.61,7.5,7.5,0,0,1-1.34,0,1.67,1.67,0,0,1-1.28-1c-.41-1.46.15-3.49,1.7-6.1a133.54,133.54,0,0,1,9.58-15.06l.06-.12c-.25.05-.5.09-.76.12s-.51.05-.76.06c-1.1.12-1.79.19-2.08.19a.55.55,0,0,1-.24.12l-.12.06a1,1,0,0,1-.67-.18,6.5,6.5,0,0,1-.25-.61.37.37,0,0,1,.06-.52h0a.82.82,0,0,1,.55-.22c2.11-.24,3.62-.4,4.51-.48h.92L99.38,240c1.38-1.79,2.4-3.16,3.05-4.09s1.26-1.7,1.58-2.19l.86-1.16c.15-.2.29-.4.42-.61l.06-.06.07-.12a.56.56,0,0,1,.61-.43,1.49,1.49,0,0,1,.91.31c.28.2.39.42.31.67a4.87,4.87,0,0,1-.86,1.34c-1.06,1.5-2.59,3.62-4.6,6.34s-3.39,4.6-4.12,5.61q3.54-.24,7.26-.36c2.27-.09,4-.11,5.24-.07h2.5l2.56.13a1.37,1.37,0,0,1,.86.45.54.54,0,0,1,0,.76l-.08.07-.55.42a1,1,0,0,1-1.22-.12,2.1,2.1,0,0,0-.92-.24H111q-6.23,0-10.68.3c-1.62.08-2.88.17-3.78.25-.16.24-.43.62-.79,1.12s-.65.89-.86,1.13q-3.1,4.39-5.06,7.63c-.12.24-.63,1.07-1.52,2.5s-1.61,2.63-2.14,3.63a13.4,13.4,0,0,0-1.09,2.59,9.7,9.7,0,0,0-.49,1.83v.61c.65-.17,3.21-1.1,7.68-2.81a102,102,0,0,1,10.37-3.23A70.56,70.56,0,0,1,114.21,260Zm17.5-31.9c.2.41.08.65-.36.73a20.27,20.27,0,0,1-3.85.73c-.69,0-1.12-.22-1.28-.67a.74.74,0,0,1-.06-.36h-1.77q-4.2-.06-11.8.51c-5.07.38-8.57.62-10.52.71a30.9,30.9,0,0,1-3.6-.06c-.85-.13-1.34-.39-1.46-.8a.44.44,0,0,1,.16-.6h0l.25-.18c.36-.33.85-.26,1.46.18h.67c2.48,0,5.83-.16,10-.49s7.64-.54,10.28-.67a97.15,97.15,0,0,1,10.79.31,1.32,1.32,0,0,1,1.07.67Zm-9.27,33.3h.12v.09A.16.16,0,0,0,122.44,261.35Z"/><path class="cls-2" d="M162,249.35a.52.52,0,0,1-.57.07A.85.85,0,0,1,161,249a13.53,13.53,0,0,0-4,2.09,19.71,19.71,0,0,0-2.46,2,3.64,3.64,0,0,0-.5.46l-.55.54a3.89,3.89,0,0,0-.44.47,2.63,2.63,0,0,0-.41.63,2.9,2.9,0,0,0-.24.7.39.39,0,0,0,.28.43,6.27,6.27,0,0,0,1.5,0l.87-.13a3,3,0,0,0,.52-.11.54.54,0,0,1,.22,0l1.5-.31.79-.21c.54-.17,1.35-.44,2.33-.78,5.68-1.92,6.89-2.54,7.89-3.17a17.16,17.16,0,0,0,2.89-2.28,25,25,0,0,0-2.29,2.84c-.29.43-.56.86-.81,1.27-.48.21-8.76,3.75-12.9,4.32a5.34,5.34,0,0,1-3.44-.53c-1.07-.63-1.49-1.39-1.27-2.25a8.08,8.08,0,0,1,1.44-2.13,30.23,30.23,0,0,1,4.75-3.69c2.31-1.51,4-2,5.09-1.37.48.27.7.59.67.95A1,1,0,0,1,162,249.35Z"/><path class="cls-2" d="M194.89,245.85a4,4,0,0,0-.12.84,4.92,4.92,0,0,0,0,.94,4.28,4.28,0,0,0-.89.27c-3.31,1.22-5.17,4-7.23,5.42-.87.63-1.8,1.17-1.8,1.17l-.51.3a18.09,18.09,0,0,1-4.21,1.89c-2.08.24-3.46-.2-4.15-1.34a3,3,0,0,1-.12-2.56A21,21,0,0,1,174,254.6l-.73.84a7,7,0,0,1-1,.88,5.17,5.17,0,0,1-1.71,1,2.3,2.3,0,0,1-2.38-.25,2.19,2.19,0,0,1-.79-1.83,7.79,7.79,0,0,1,1.83-3.9,18,18,0,0,1,3.35-3.23,11.07,11.07,0,0,1,1.39-.86,11,11,0,0,1,1.85-.73,8.1,8.1,0,0,1,2.48-.45,7.46,7.46,0,0,1,1.49.15c-.1.14-.21.27-.33.41a10.55,10.55,0,0,1-.72.78,10.87,10.87,0,0,0-2.25.55,11.44,11.44,0,0,0-2.75,1.49,13,13,0,0,0-2.37,2.32,9.3,9.3,0,0,0-1.9,2.93,2.1,2.1,0,0,0-.12,1.52.31.31,0,0,0,.19-.06,11.78,11.78,0,0,0,3.47-2.93l3.54-3.78,1.89-1.71.06-.06c.12-.16.35-.41.67-.76a4.8,4.8,0,0,0,.67-.82c.21-.25.56-.29,1.07-.13s.76.41.76.74v.06a2,2,0,0,1-.49.88c-.32.43-.7.89-1.12,1.37s-.71.82-.83,1l-.55.91a17.56,17.56,0,0,0-.91,2.2,1.91,1.91,0,0,0,.12,1.92,1.49,1.49,0,0,0,1.65.34,32.37,32.37,0,0,0,3.53-1.65,46.48,46.48,0,0,0,8-6.1,11.38,11.38,0,0,1,2.89-1.56,5.44,5.44,0,0,1,.54-.15Z"/><path class="cls-2" d="M211.78,252.16a38.15,38.15,0,0,1-8.85,4.7h0s-4.09,1.69-6.52,1.28a1.22,1.22,0,0,1-1-.61.44.44,0,0,1,.16-.6h0a8.51,8.51,0,0,0,.86-.73l1.4-1.34a33.67,33.67,0,0,0,3.11-3.54l.79-1.1a5.4,5.4,0,0,0,.92-2.13c0-.2-.16-.31-.49-.31a5.46,5.46,0,0,0-4,2.2,7.82,7.82,0,0,0-1.22,1.22,24.82,24.82,0,0,0-1.89,2.44c-.41.57-.7,1-.86,1.28l-1.09,1.65-.82,1.28c-.28.77-.85,2.24-1.71,4.39s-1.51,3.82-2,5c-1.14,2.84-1.75,4.35-1.83,4.51a12.39,12.39,0,0,1-2.62,3.78,1,1,0,0,1-1,.25,1.14,1.14,0,0,1-.82-.61,5.46,5.46,0,0,1-.12-3.48,17,17,0,0,1,1.4-3.84q.38-.73,1.95-3.54c1.31-2,2.3-3.56,3-4.57l2.14-3.17.12-.37c.2-.53.53-1.34,1-2.44s.78-1.93,1-2.5a26.81,26.81,0,0,0,1.34-4.39.51.51,0,0,1-.21-.27.4.4,0,0,1,0-.34c.16-.28.53-.42,1.1-.4s.85.26.85.7a19.23,19.23,0,0,1-.79,3.91,14.8,14.8,0,0,1,1.77-1.77,9.19,9.19,0,0,1,3-1.95,4.94,4.94,0,0,1,3.24-.12c1,.4,1.46,1,1.46,1.7a4.85,4.85,0,0,1-.73,2.08,27.06,27.06,0,0,1-3.54,4.51q-.3.36-1.83,1.89c.39-.1.94-.25,1.6-.46a39.38,39.38,0,0,0,7.13-3.06c2.21-1.17,5.2-2.84,8.72-5.12Zm-25.13,15,.65-1.67c-.49.81-.93,1.59-1.34,2.32a22.46,22.46,0,0,0-1.65,4,9.63,9.63,0,0,1-.18,1A44.61,44.61,0,0,0,186.65,267.11Z"/><path class="cls-2" d="M214.92,254.1a2.63,2.63,0,0,1-2.32.12l-.12.12a2.54,2.54,0,0,0-.12,2.62c.73.37,2.29.06,4.69-.91a45.48,45.48,0,0,0,9-5.37c.16-.12.49-.36,1-.7l1.13-.76a6.1,6.1,0,0,1,1.16-.61,1.2,1.2,0,0,1,.89.12.54.54,0,0,1,.33.67l-.12.18-.18.19-.8.61-.24.18-1.92,1.34a55.11,55.11,0,0,1-6.16,3.84,26.75,26.75,0,0,1-5.31,2.26,10.32,10.32,0,0,1-2.93.3,2.84,2.84,0,0,1-2.68-1.95,4.63,4.63,0,0,1,.92-3.29A18.24,18.24,0,0,1,213.7,250a13.76,13.76,0,0,1,3-2.32q2.25-1.4,3.72-.36c.77.65.71,1.6-.19,2.86a11.5,11.5,0,0,1-2.31,2.26A13.69,13.69,0,0,1,214.92,254.1Zm-1.71-.92.43-.06a10.84,10.84,0,0,0,4.69-3.23A7.44,7.44,0,0,0,219,249l.19-.85a5.59,5.59,0,0,0-1.71.85,25.12,25.12,0,0,0-4,3.78Z"/><path class="cls-2" d="M298.12,225.58a1.11,1.11,0,0,1,1.28.06c.53.28.67.61.43,1a18.58,18.58,0,0,1-2,2.81q-2.5,3-7,9.51-2.81,3.9-6.46,9.76-3.24,5.19-6.46,10.85c-.61,1-1.48,2.55-2.63,4.58s-2,3.54-2.56,4.51Q267,279,263.33,285c-.65.4-1.16.36-1.53-.13a1.72,1.72,0,0,1,.25-2.38,7.27,7.27,0,0,0,1.77-2.31q8.1-14.22,8.72-15.31,6.29-11.34,11.83-20c1.5-2.24,2.34-3.5,2.5-3.78q-1.83,2.07-5.67,6c-.77.82-2,2-3.6,3.42a37.82,37.82,0,0,1-5.37,4.14c-2.23,1.43-4,1.79-5.24,1.1-1.67-.93-2-3.21-.92-6.83a34.91,34.91,0,0,1,3-7q1.15-2.07,5-7.81,2.81-4.32,3-4.76c.69-1.38.77-2.35.25-2.92s-1.57-.47-3.11.3a29.54,29.54,0,0,0-4.09,2.75,22.45,22.45,0,0,0-2.93,3,14.89,14.89,0,0,0-3.29,5.13.68.68,0,0,1,.61.24.18.18,0,0,1,.09.22.27.27,0,0,1-.15.21l-.37.24a2.62,2.62,0,0,1-.52.22l-.42.09a.61.61,0,0,1-.46-.06,1.62,1.62,0,0,1-.37-.37c-.4-.57-.07-1.73,1-3.48a30.76,30.76,0,0,1,2.9-4.08,16.21,16.21,0,0,1,1.4-1.47,26.6,26.6,0,0,1,4-3,10.56,10.56,0,0,1,4.15-1.65c1.63-.24,2.76.1,3.42,1a3.55,3.55,0,0,1,.18,3.47,20.88,20.88,0,0,1-1.77,3.17l-2.38,3.6c-1.38,2.12-2.42,3.72-3.11,4.82a48.78,48.78,0,0,0-2.41,4.51,24.88,24.88,0,0,0-1.92,5.43,9.45,9.45,0,0,0-.3,1.83,3.08,3.08,0,0,0,.48,2.07,3.49,3.49,0,0,0,1.28-.27,7.71,7.71,0,0,0,1-.49,13.83,13.83,0,0,0,1.28-.88l1.1-.8a46.35,46.35,0,0,0,4.82-4.14c1.14-1.1,2.84-2.85,5.12-5.25q4.69-4.94,8.36-9l2-2.26,1.89-2.13A23.35,23.35,0,0,1,298.12,225.58Z"/><path class="cls-2" d="M314.14,246.94a7.54,7.54,0,0,1,1.65-.71c.33-.09.66-.17,1-.23a4.94,4.94,0,0,1-.41.79,5.1,5.1,0,0,1-1.09,1.27,27.21,27.21,0,0,1-11.75,3.31c-.31,0-.61-.05-.92-.05h-1.17c-.51.48-.9.85-1.19,1.08a25.43,25.43,0,0,1-2.27,1.88,7.94,7.94,0,0,1-3.14,1.6,3.72,3.72,0,0,1-3.25-.53,2,2,0,0,1-.72-1.49,2.76,2.76,0,0,1,.33-1.49,13.71,13.71,0,0,1,2.88-3.88,13.42,13.42,0,0,1,4.27-2.69,1.08,1.08,0,0,1,1.17.39.61.61,0,0,1,.12.71.53.53,0,0,1-.61.26,18.31,18.31,0,0,0-3.28,2.38,11.27,11.27,0,0,0-2.66,3.36,2.71,2.71,0,0,0-.27,1.31c.06.22.43.29,1.11.2a10.29,10.29,0,0,0,2.75-1.48c1.37-1.16,2.17-1.84,2.42-2a1.2,1.2,0,0,1,.29-.26,1.16,1.16,0,0,0,.29-.25l-.14-.22a2.13,2.13,0,0,1-.21-1.58,3.07,3.07,0,0,1,.4-1.17,2.52,2.52,0,0,1,1.33-1.18,1.54,1.54,0,0,1,2.05.77.87.87,0,0,1,.07.17,2.71,2.71,0,0,1-.49,2.7V250h.12a23.75,23.75,0,0,0,4.44-.55A31.77,31.77,0,0,0,314.14,246.94Z"/><path class="cls-2" d="M338.3,249.19a32,32,0,0,0-4.33,2.3c-1.31.84-1.65,1.2-3.66,2.51a26.5,26.5,0,0,1-3.53,2.07,8,8,0,0,1-4,1,2.81,2.81,0,0,1-1.62-.61,2.38,2.38,0,0,1-.88-1.46,6,6,0,0,1,.3-2.38,13.43,13.43,0,0,1-1.15,1c-.29.24-.72.62-1.28,1.13s-1,.86-1.22,1.06a10.17,10.17,0,0,1-2.14,1.53,3.17,3.17,0,0,1-2.13.37,2,2,0,0,1-1.89-1.53,4.2,4.2,0,0,1,.48-2.38,20.19,20.19,0,0,1,1.71-3c1.67-2.39,2.73-3.88,3.17-4.45a1,1,0,0,1,1.1-.3c.49.08.77.24.85.48s0,.41-.36.74l-.18.3-.55.73c-.17.25-.42.6-.77,1.07s-.53.74-.58.82c-.52.78-1.19,1.83-2,3.18-1.05,1.91-1.28,2.88-.67,2.92a2.62,2.62,0,0,0,1.47-.67q2.13-1.71,6.64-6.1,1.59-1.58,1.89-1.83a9.26,9.26,0,0,1,1.41-1.16,1.2,1.2,0,0,1,1.19,0c.46.22.59.53.39.94a2,2,0,0,1-.67.79,7,7,0,0,0-.79,1,13.47,13.47,0,0,0-1.59,2.62l-.55,1.53-.18.91v.31c0,.85.55,1.12,1.65.79a10,10,0,0,0,1.83-.73,24.89,24.89,0,0,0,3.47-2.08c1.62-1.19,10.16-7.22,11.68-5.79a1,1,0,0,1,.24.88Z"/><path class="cls-2" d="M339.73,246.86a1.19,1.19,0,0,1,1.35.24q.42.43-1.35,3.24A56.49,56.49,0,0,1,345,247l.37-.18.55-.25a12,12,0,0,1,2.62-.79l.49-.06a2.15,2.15,0,0,1,.62,0c1.2.21,2.27,1.53,2,2.32a.88.88,0,0,1-.37.44.67.67,0,0,1-.46.08c-.41-.08-.43-.6-1-1a1.65,1.65,0,0,0-1-.34,2.22,2.22,0,0,0-1.2.36c-.4.21-1,.52-1.83.92l-.61.3-1.15.67-.67.43-1.47.85-1.1.86-1.52,1.46-1.4,1.28-1.41,1.59a8.92,8.92,0,0,1-.85,1.34,1.49,1.49,0,0,1-.18.3c-.08.17-.45.17-1.1,0a1.09,1.09,0,0,1-.43-.42.62.62,0,0,1-.12-.49l.73-1.1a32.66,32.66,0,0,0,1.83-2.93l.37-.73,1.28-2.32A7,7,0,0,1,339.73,246.86Z"/><path class="cls-2" d="M400.21,226.61a1.16,1.16,0,0,1,1.53.25c.36.32.36.63,0,.91-.17.16-.42.39-.77.67a7,7,0,0,1-.82.61,57.53,57.53,0,0,0-7.62,7.75,96.64,96.64,0,0,0-6.41,8.41q-2.61,3.91-5.36,9a28.7,28.7,0,0,0-2.5,6.83,17.14,17.14,0,0,0-.49,3.9,10,10,0,0,0,.12,1.89,5.44,5.44,0,0,0,2.41,3.61,7.35,7.35,0,0,0,4.24,1.07,22.49,22.49,0,0,0,8.78-2.17q2.07-1.15,3.72-2.25a61.58,61.58,0,0,0,14-12.81,76.83,76.83,0,0,0,5.85-8.36q1.29-2.13,2.5-4.57a32.72,32.72,0,0,0,2.5-6.1c.82-2.8.88-4.94.18-6.4a4.68,4.68,0,0,0-3.41-2.72,11.63,11.63,0,0,0-5.31.22,17.53,17.53,0,0,0-5.48,2.44q-6,4.14-11.17,12.56c-.28.41-.75.43-1.4.06s-.73-.59-.49-1c.86-1.35,1.89-2.85,3.11-4.52a49.8,49.8,0,0,1,6-6.4,22.48,22.48,0,0,1,7.5-4.45,15.52,15.52,0,0,1,4.21-.8,10.55,10.55,0,0,1,4.21.55,6.9,6.9,0,0,1,2.93,2,6.21,6.21,0,0,1,1.34,2.69,14.35,14.35,0,0,1-.19,6.22,33.28,33.28,0,0,1-2.31,6.1A69.12,69.12,0,0,1,410,258.69a58,58,0,0,1-14.52,11.65,24.93,24.93,0,0,1-6.58,2.38,15.5,15.5,0,0,1-8.11-.25,7.91,7.91,0,0,1-3.36-2.31,8.3,8.3,0,0,1-1.52-3.48,17.25,17.25,0,0,1,.91-7.93,29.28,29.28,0,0,1,1.28-3.54q.44-1,1.89-3.78a96.48,96.48,0,0,1,5.61-8.9,83.79,83.79,0,0,1,6.65-8.36A54,54,0,0,1,400.21,226.61Z"/><path class="cls-2" d="M449.49,247.65l-.06-.24a2.62,2.62,0,0,0-1,.43,16.12,16.12,0,0,0-2,2.13,18.84,18.84,0,0,0-2.07,2.87,5,5,0,0,0-1,3.35.2.2,0,0,0,.18.12c.82,0,2.4-1.18,4.76-3.53q2.56-2.44,6.46-7a102.77,102.77,0,0,0,6.83-8.72,20,20,0,0,1,1.41-2,8.1,8.1,0,0,1,.42-.7c.21-.31.37-.54.49-.7a9.76,9.76,0,0,0,.73-1.35,3.74,3.74,0,0,0,.55-1.58c0-.2-.24-.06-.73.43l-.16.28-.13.12a.64.64,0,0,0-.24.22.69.69,0,0,1-.24.21c-.67.67-1.33,1.38-2,2.13a60.81,60.81,0,0,0-5.31,7.26,56.37,56.37,0,0,0-2.74,5c-1.59,3.09-2.35,5.55-2.26,7.38a2,2,0,0,0,.56,1.43c1,.88,2.93.16,4.22-.33,7.33-2.78,11.07-4.22,14.5-6.79,1.2-.91,2.14-1.71,2.74-2.23q-1.12,2-2.23,4c-8.06,3.54-14,6-15.67,6.59a7.33,7.33,0,0,1-2.54.39,3.62,3.62,0,0,1-1.79-.44,3.06,3.06,0,0,1-.71-.53,2.81,2.81,0,0,1-.85-2.08A13.16,13.16,0,0,1,451,248a44.5,44.5,0,0,1,2.93-5.86c.81-1.38,1.44-2.4,1.89-3.05a48,48,0,0,1,2.93-4,29.14,29.14,0,0,1,3.9-4.33,6,6,0,0,1,1.89-1.22,1.93,1.93,0,0,1,2.2.61,2.27,2.27,0,0,1-.06,2.32,16.13,16.13,0,0,1-1.65,2.92,141.31,141.31,0,0,1-9.33,12.08,57.76,57.76,0,0,1-7.5,7.74c-1.75,1.47-3.11,2.27-4.09,2.38a2.14,2.14,0,0,1-2-.73,2.77,2.77,0,0,1-.19-2.62,13.69,13.69,0,0,1,1.77-3.17,16,16,0,0,1,2.08-2.56,10.14,10.14,0,0,1,2.8-2.2,4.52,4.52,0,0,1,1.16-.24,2,2,0,0,1,1.16.21c.33.18.41.5.24.94l-.12.25c-.08.16-.33.27-.76.33S449.53,247.77,449.49,247.65Z"/><path class="cls-2" d="M474.55,246.92l-.36.37-.25.18-.67.61a21.92,21.92,0,0,0-2.8,3.35,12.52,12.52,0,0,0-2,4,3.76,3.76,0,0,0-.12.67c0,.16.19.2.43.12l.73-.18c.23-.06.68-.24,1.37-.52,1.58-.65.89-.34,2.78-1.19,1.27-.57,8.89-4,19.34-8.79a16.9,16.9,0,0,0-1.52,1.86c-.35.51-.65,1-.91,1.45-10.33,4.46-14.35,6.18-15.11,6.49L474,256c-.62.27-1,.47-1.15.52-3.46,1.5-5.55,1.54-6.29.12a1.91,1.91,0,0,1-.06-1.41,6.83,6.83,0,0,1,.86-2.07,25,25,0,0,1,5.91-7.2.78.78,0,0,1,.92.1A.91.91,0,0,1,474.55,246.92Zm.37-2.74a.73.73,0,0,1-.67-.78v0a.14.14,0,0,1,.06-.12l.12-.15a.52.52,0,0,1,.18-.15.85.85,0,0,0,.28-.22,2.16,2.16,0,0,1,.33-.27c.13-.08.29-.19.49-.34s.41-.29.61-.45a.93.93,0,0,1,.73-.1,1.27,1.27,0,0,1,.61.28c.45.28.53.57.25.85l-.61.49-.55.43a2.39,2.39,0,0,1-1.83.55Z"/><path class="cls-2" d="M511,250.88c-.41.54-.83,1.15-1.24,1.82l-.56,1c-1.31.66-2.43,1.15-3.24,1.49,0,0-5.35,2.23-9.9,2.13a2.88,2.88,0,0,1-1.29-.3,2.4,2.4,0,0,1-1-.87,3.29,3.29,0,0,1,.19-3,25.84,25.84,0,0,1,1.76-3.23c.41-.86.65-1.38.74-1.59a20.12,20.12,0,0,0-4.21,3.6c-.45.49-1.2,1.4-2.26,2.74a33.22,33.22,0,0,1-2.56,3c-.2.33-.59.35-1.16.06-.45-.12-.61-.34-.49-.67a39.45,39.45,0,0,1,4-7,9.58,9.58,0,0,0,.73-1.28,9.69,9.69,0,0,1,.82-1.29q.92-1.83,1.89-1.83a1.14,1.14,0,0,1,1.1.55c.2.45,0,.67-.49.67-.12,0-.3.2-.55.61l-.54,1.16-.49,1.09a16.1,16.1,0,0,1,3.47-2.68c1.55-.93,2.48-.89,2.81.12a5.55,5.55,0,0,1-.92,3.11c-.56,1-1.13,2-1.7,3a3,3,0,0,0-.49,2.23c0,.1.06.2.1.3l.27.09c.88.26,3.76.94,10.21-2.13A43.26,43.26,0,0,0,511,250.88Z"/><path class="cls-2" d="M533.65,247.59a1,1,0,0,1,.48.4.32.32,0,0,1,0,.45h0a60.71,60.71,0,0,1-6.09,4.87l-2.32,1.47a18.09,18.09,0,0,1-4.21,1.89c-2.07.24-3.46-.2-4.15-1.34a3,3,0,0,1-.12-2.56,18.49,18.49,0,0,1-1.83,1.82l-.79.83a6.43,6.43,0,0,1-1,.88,4.87,4.87,0,0,1-1.7,1,2.3,2.3,0,0,1-2.38-.25,2.16,2.16,0,0,1-.8-1.83,8,8,0,0,1,1.83-3.9,17.43,17.43,0,0,1,3.36-3.23,12.61,12.61,0,0,1,3.23-1.59,4.4,4.4,0,0,1,1.53-.18c.93.33,1.28.75,1,1.28s-.51.49-1,.25c-.17-.13-.45-.13-.86,0a17,17,0,0,0-2.74,1.58,18.64,18.64,0,0,0-2.38,2.32,9.1,9.1,0,0,0-1.89,2.93,2,2,0,0,0-.12,1.52.23.23,0,0,0,.18-.06,11.82,11.82,0,0,0,3.48-2.93l3.53-3.78,1.89-1.71.06-.06c.13-.16.35-.41.67-.76a5.92,5.92,0,0,0,.68-.82c.2-.25.55-.29,1.06-.13s.77.41.77.74v.06a2.13,2.13,0,0,1-.49.88c-.33.43-.7.89-1.13,1.37a10.58,10.58,0,0,0-.82,1l-.55.91a16.23,16.23,0,0,0-.92,2.2,1.94,1.94,0,0,0,.12,1.92,1.49,1.49,0,0,0,1.65.34,35.54,35.54,0,0,0,3.54-1.65,47,47,0,0,0,8-6.1A1.12,1.12,0,0,1,533.65,247.59Z"/><path class="cls-2" d="M533.4,246.86a1.18,1.18,0,0,1,1.34.24c.29.29-.16,1.37-1.34,3.24a56.49,56.49,0,0,1,5.31-3.36l.37-.18.54-.25a12.08,12.08,0,0,1,2.63-.79l.48-.06a3.54,3.54,0,0,1,.92.06c.89.21,1.26.63,1.1,1.28q-.32.61-1.65.12a5.31,5.31,0,0,0-1.71.43,17.39,17.39,0,0,0-1.83.92l-.61.3-1.16.67-.67.43-1.46.85-1.1.86L533,253.08l-1.41,1.28-1.4,1.59a9.79,9.79,0,0,1-.85,1.34,1.49,1.49,0,0,1-.18.3c-.09.17-.45.17-1.1,0a1.09,1.09,0,0,1-.43-.42.62.62,0,0,1-.12-.49l.73-1.1a32.66,32.66,0,0,0,1.83-2.93l.37-.73,1.28-2.32A6.75,6.75,0,0,1,533.4,246.86Z"/><path class="cls-2" d="M598,260.09q4.39,1.29,3.66,3.78c-.08.29-.31.44-.7.46a1.56,1.56,0,0,1-1-.3.69.69,0,0,1-.34-.76c.12-.41.1-.7-.06-.86a6.71,6.71,0,0,0-2.62-1.19,18.73,18.73,0,0,0-2.78-.55c-.67-.06-1.74-.13-3.2-.21a69.38,69.38,0,0,0-11.71,0c-2.4.16-4.13.3-5.18.43s-2.81.34-5.37.67Q560.22,262.77,547,266c-.57,1.1-1.2,2.23-1.89,3.41a60.85,60.85,0,0,1-3.6,5.8,11,11,0,0,1-4.39,3.84,4.07,4.07,0,0,1-4.21-.37,3,3,0,0,1-1.22-3.29,9.92,9.92,0,0,1,1.65-3.78,15.53,15.53,0,0,1,2.74-2.87,22.73,22.73,0,0,1,7.26-3.47c.9-.25,1.59-.43,2.07-.55l.74-1.46s0-.07.06-.07a47.58,47.58,0,0,1,2.5-5c.12-.28.31-.7.58-1.25s.45-1,.58-1.25c-.9.65-1.59,1.12-2.08,1.41a4.76,4.76,0,0,1-2.5.61,2.34,2.34,0,0,1-1.89-2,4.55,4.55,0,0,1,.24-2.31c.41-.9.86-1.79,1.35-2.69,0-.08.37-.67,1-1.77s1.07-1.91,1.31-2.44.62-.5,1.25-.3.89.51.77.91l-.43.86a5.36,5.36,0,0,1-.46.85l-.52.86c-.61,1-1.28,2.23-2,3.66a5.87,5.87,0,0,0-.49,2.68,3.27,3.27,0,0,0,1.47-.67,12.65,12.65,0,0,0,1.89-1.53l2.44-2.62c.93-1.1,1.58-1.85,2-2.26s1-1.09,1.89-1.95a2.48,2.48,0,0,1,1.4-1.22,1.25,1.25,0,0,1,1.1.25c.41.28.49.55.25.79a14.41,14.41,0,0,0-1.35,1.46c-.28.45-.71,1.16-1.28,2.14-.28.49-.71,1.21-1.28,2.16s-1,1.66-1.28,2.11a1,1,0,0,0-.15.24,1,1,0,0,1-.15.24l-3.54,7.2c-.16.37-.45.92-.85,1.65q6.53-1.59,11.28-2.5,6-1.09,10.67-1.77c3.62-.45,7.22-.75,10.8-.92a68.72,68.72,0,0,1,12,.31A28.67,28.67,0,0,1,598,260.09Zm-55.31,9.64c.24-.41.61-1,1.1-1.8s.75-1.23.79-1.31a29.89,29.89,0,0,0-4,1.46,12.86,12.86,0,0,0-5.8,4.94c-1.42,2.32-1.71,3.86-.85,4.64s1.87.49,3.41-.73a14.31,14.31,0,0,0,1.71-1.77A49.44,49.44,0,0,0,542.69,269.73Z"/><path class="cls-2" d="M145.35,245.3c-.08-.83-1.75-1.39-3.12-1.31a3,3,0,0,0-2.47,1.55,3.31,3.31,0,0,0-.13,2.6,32.18,32.18,0,0,1,1,3.32,5.34,5.34,0,0,1-1.78,5.09l-.32.29s-.32.26-.13.11l-.31.22a7.41,7.41,0,0,1-1.77.91,2.24,2.24,0,0,1-2.53-.29,3.56,3.56,0,0,1-.37-3.3l-1.47.6a22.66,22.66,0,0,0,21.53-1.36c.73-.47,3.3-2,3.13-2.38s-1.82.45-2,.08,2-2.11,1.91-2.16-1.7,1.26-3.45,2.53c-1.1.8-2,1.37-2.08,1.46a17.52,17.52,0,0,1-10.22,2.41,18.11,18.11,0,0,1-7.79-2.31,1.35,1.35,0,0,0-1.16.11,1,1,0,0,0-.31.49c-.64,2.2-.24,5.13,2.14,6.1,1.79.73,3.82-.12,5.35-1.09a9,9,0,0,0,2.73-2.76c1.37-2.2,1.13-4.66.41-7-.18-.6-.42-1.18-.58-1.78a1.63,1.63,0,0,1-.08-.58v-.14c.07-.34,0,0,0-.11a1,1,0,0,1,.46-.46c.37-.18,1.16.68,2,.63A1.61,1.61,0,0,0,145.35,245.3Z"/><path class="cls-2" d="M428.86,246.91a1.14,1.14,0,0,1,1.34.24c.28.28-.16,1.36-1.34,3.23a57,57,0,0,1,5.3-3.35l.37-.19.55-.24a11.47,11.47,0,0,1,2.62-.79l.49-.06a2.15,2.15,0,0,1,.62,0c1.2.22,2.27,1.54,2,2.33a.86.86,0,0,1-.37.43.62.62,0,0,1-.46.09c-.41-.08-.43-.61-1-1a1.88,1.88,0,0,0-1-.34,2.23,2.23,0,0,0-1.2.37c-.41.21-1,.52-1.83.91l-.61.31-1.16.67-.67.42-1.47.86-1.09.85-1.53,1.47L427,254.4l-1.4,1.58a9,9,0,0,1-.86,1.34,1.57,1.57,0,0,1-.18.31c-.08.16-.45.16-1.1,0a1.09,1.09,0,0,1-.42-.43.63.63,0,0,1-.13-.49l.74-1.09a28.67,28.67,0,0,0,1.82-2.93l.37-.73,1.28-2.32A6.65,6.65,0,0,1,428.86,246.91Z"/></g></g></svg>